<svg xmlns="http://www.w3.org/2000/svg" version="1.1" xmlns:xlink="http://www.w3.org/1999/xlink" viewBox="0 0 700 700" style="overflow: hidden; display: block;" width="700" height="700"><defs><linearGradient id="two-3" x1="350" y1="-350" x2="350" y2="350" spreadMethod="pad" gradientUnits="userSpaceOnUse"><stop offset="0%" stop-color="hsl(205, 69%, 60%)" stop-opacity="1"></stop><stop offset="100%" stop-color="hsl(205, 69%, 80%)" stop-opacity="1"></stop></linearGradient></defs><g id="two-0" transform="matrix(1 0 0 1 0 0)" opacity="1"><path transform="matrix(1 0 0 1 350 350)" id="two-263" d="M 337.527061 35.475523 C 335.684715 72.500385 245.402694 16.493201 225.893774 48.015203 C 220.567557 56.621165 235.332101 66.757763 236.425624 76.819342 C 237.391037 85.702159 230.200748 95.106327 232.807727 103.652678 C 240.935922 130.298999 305.342059 144.313259 288.863155 166.77522 C 255.757414 211.900787 167.91688 52.834432 134.093506 97.424635 C 109.946178 129.258663 205.283804 151.023044 211.554124 190.484189 C 213.272821 201.300502 209.884096 218.599506 199.274528 221.316785 C 159.385512 231.532998 138.498648 120.88095 103.066922 141.859448 C 87.232028 151.235008 111.142786 178.387015 113.526833 196.634243 C 116.504374 219.42401 138.351585 254.561013 118.477535 266.1049 C 104.435414 274.261297 87.965501 251.22604 77.573705 238.747316 C 49.412451 204.930593 67.872516 107.666995 24.722943 116.312303 C -9.80538 123.230284 28.288963 188.136232 23.439853 223.015305 C 19.361845 252.347926 29.34708 305.669096 0 309.641714 C -17.769434 312.047104 -20.946347 279.491677 -27.626758 262.851041 C -35.607679 242.970887 -21.713569 205.07695 -42.43623 199.646764 C -58.825234 195.352174 -60.632815 241.205266 -77.157338 237.465867 C -89.948116 234.571392 -78.462728 207.528646 -88.811122 199.473045 C -95.49048 194.273566 -108.878575 204.587994 -114.429513 198.197728 C -124.537463 186.561407 -96.523895 158.784522 -110.203333 151.681874 C -153.112482 129.402554 -183.518284 275.841635 -221.92085 246.468072 C -245.308221 228.579414 -199.349192 190.831778 -184.020022 165.692371 C -168.26027 139.84682 -136.484295 122.093444 -128.037137 93.024425 C -126.359063 87.249704 -124.635113 78.134146 -129.689929 74.876515 C -181.53528 41.464216 -267.818654 184.609861 -306.204588 136.331066 C -317.450456 122.186902 -289.77018 102.799595 -277.00915 90.005728 C -256.623054 69.567175 -196.084977 71.17143 -203.123255 43.17518 C -213.039553 3.730991 -320.382128 74.544008 -326.048242 34.269051 C -330.619506 1.77633 -250.762359 27.399013 -232.707792 0 C -228.23505 -6.787686 -239.466836 -18.555439 -234.028763 -24.597415 C -212.977195 -47.986777 -147.962751 0.601328 -138.797623 -29.502346 C -134.377222 -44.021545 -180.161325 -42.580537 -175.617519 -57.061591 C -171.26327 -70.938527 -135.742849 -44.646302 -131.570832 -58.579109 C -116.179577 -109.979513 -232.929862 -108.996097 -264.247419 -152.563319 C -274.392629 -166.676763 -292.281952 -191.322496 -279.411429 -203.004286 C -253.27259 -226.728922 -207.841667 -140.219832 -180.424789 -162.45521 C -168.025057 -172.511523 -191.81317 -194.308084 -189.125637 -210.045299 C -187.32547 -220.58642 -181.530871 -231.668926 -173.048881 -238.181351 C -164.700933 -244.590859 -152.250666 -249.473032 -142.210595 -246.315975 C -108.888099 -235.837862 -105.377426 -150.814492 -73.730052 -165.600408 C -34.141167 -184.096664 -136.623905 -279.485106 -96.206368 -296.092755 C -70.682106 -306.580727 -75.934945 -226.476865 -48.359376 -227.512975 C -34.911885 -228.018244 -33.155608 -250.355752 -27.60176 -262.613202 C -15.534694 -289.245451 -29.11559 -349.483992 -0.000001 -346.805715 C 50.515959 -342.158866 -29.190425 -204.960616 20.437026 -194.445319 C 40.137948 -190.270995 32.246598 -246.139471 52.382646 -246.440974 C 63.520062 -246.607739 59.785215 -218.869089 70.905163 -218.223656 C 99.702153 -216.5522 102.011707 -299.658905 127.004539 -285.256867 C 180.638831 -254.350279 9.864119 -140.869314 62.910835 -108.964763 C 98.086516 -87.808612 111.217999 -179.914437 146.253917 -201.301249 C 159.658577 -209.483793 176.547645 -213.240786 192.249989 -213.515245 C 204.366344 -213.727025 223.31205 -216.490499 228.049492 -205.336686 C 238.686685 -180.292525 169.328178 -156.656386 185.452441 -134.739086 C 202.236494 -111.924952 255.636407 -180.27013 268.806118 -155.195285 C 285.244099 -123.897723 204.684619 -115.578505 188.733983 -84.029784 C 185.233831 -77.106843 181.678273 -66.638797 186.574506 -60.621732 C 200.065262 -44.042712 248.073832 -74.519868 250.934507 -53.337777 C 255.273626 -21.208434 168.598734 -47.976705 159.740231 -16.789375 C 157.858293 -10.163807 166.352012 -3.734116 172.139605 -0.000001 C 219.043697 30.262204 340.301181 -20.274806 337.527061 35.475523 Z " fill="url(#two-3)" stroke="undefined" stroke-width="1" stroke-opacity="1" fill-opacity="1" visibility="visible" stroke-linecap="butt" stroke-linejoin="miter" stroke-miterlimit="4"></path></g></svg>