<?xml version="1.0" encoding="utf-8"?>
<!-- Generator: Adobe Illustrator 24.3.0, SVG Export Plug-In . SVG Version: 6.00 Build 0)  -->
<svg version="1.1" id="Layer_1" xmlns="http://www.w3.org/2000/svg" xmlns:xlink="http://www.w3.org/1999/xlink" x="0px" y="0px"
	 viewBox="0 0 120 120" enable-background="new 0 0 120 120" xml:space="preserve">
<g>
	<g>
		<path fill="blue" d="M86.319,75.29H32.804c-0.272,0-0.492-0.22-0.492-0.492v-3.395h54.5v3.394
			C86.812,75.069,86.591,75.29,86.319,75.29z"/>
	</g>
</g>
<g>
	<g>
		<path fill="green" d="M38.359,63.401h7.875V56.11h-7.875V63.401z M60.359,49.61v13.792h7.875V49.61H60.359z"/>
	</g>
</g>
<path fill="red" d="M86.277,33.056H32.849c-1.955,0.002-3.535,1.583-3.537,3.537v38.164c0.002,1.953,1.583,3.533,3.537,3.533
	h19.134v4.736h-2.749c-0.829,0-1.501,0.672-1.501,1.5c0,0.827,0.672,1.499,1.501,1.499h21.374c0.829,0,1.501-0.672,1.501-1.499
	c0-0.829-0.672-1.5-1.501-1.5h-2.5V78.29h18.168c1.953,0,3.535-1.58,3.535-3.533h0.002V36.593
	C89.812,34.638,88.232,33.058,86.277,33.056z M65.108,83.026H54.984V78.29h10.123V83.026z M86.277,75.29H32.849
	c-0.297,0-0.535-0.24-0.537-0.533v-3.354h54.5v3.354h0.002C86.812,75.049,86.574,75.29,86.277,75.29z M86.812,68.402h-54.5V36.593
	c0.002-0.297,0.242-0.537,0.537-0.537h53.427c0.295,0,0.535,0.24,0.537,0.537L86.812,68.402z M82.36,63.401h-1.625V41.776H69.858
	v21.625H58.735l-0.002-21.625H47.859v21.625H36.567c-0.829,0-1.499,0.672-1.499,1.501c0,0.827,0.67,1.499,1.499,1.499H82.36
	c0.827,0,1.499-0.672,1.499-1.499C83.859,64.074,83.186,63.401,82.36,63.401z M55.735,63.401h-4.876V44.775h4.876V63.401z
	 M77.734,63.401h-4.876V44.775h4.876V63.401z"/>
</svg>
